:SAMPLES-PER-SECOND 30
:FULLY-SPECIFIED
:DEGREES
1319
root  46.8609 38.0038 28.2344 177.015 -12.5874 170.478
RightUpLeg  -5.8867 -6.87978 -5.71416
RightLeg  50.2137 -79.9642 -52.3967
RightFoot  -9.0714 -36.4061 173.886
RightToes  -6.98493e-010 0 -3.6325e-017
Spine  12.6284 -3.25581 0.893106
Spine1  10.5336 -1.19015 -9.39622
HEad  55.3213 8.70637 -137.587
LeftShoulder1  0.512412 1.79606 -23.6681
LeftArm  -10.7112 5.75503 -36.7904
LeftForeArm  77.25 -78.9902 -96.3025
LeftHand  -0.100599 0.959816 2.55064
RightShoulder  -0.224519 -4.25644 22.4496
RightArm  -14.8476 -10.5783 33.0982
RightForeArm  116.066 70.9284 144.416
RightHand  0.0735467 -0.858272 2.13065
LeftUpLeg  -5.16379 10.7434 -5.42387
LeftLeg  23.317 -2.87023 -2.26428
LeftFoot  -15.6488 -0.0349184 -3.44934
LeftToes  7.91257e-010 -1.64976e-010 -3.02228e-011
1320
root  46.5036 37.904 28.1226 177.055 -13.6394 171.471
RightUpLeg  -6.33189 -8.47024 -5.43609
RightLeg  69.2473 -78.9922 -71.2798
RightFoot  -9.3498 -38.5155 175.125
RightToes  -6.98493e-010 0 -3.6325e-017
Spine  12.707 -3.74554 3.84459
Spine1  10.3275 -1.55856 -8.77633
HEad  55.532 8.86704 -140.885
LeftShoulder1  0.553381 1.7277 -24.9266
LeftArm  -10.1201 6.0636 -36.6829
LeftForeArm  79.0932 -78.9987 -97.3856
LeftHand  -0.0695369 1.31962 1.8432
RightShoulder  -0.136684 -3.96733 21.4981
RightArm  -14.4501 -10.6026 31.5745
RightForeArm  116.075 70.3064 145.612
RightHand  -0.0510405 -0.738656 -1.23242
LeftUpLeg  -6.80954 13.5081 -4.93781
LeftLeg  26.8486 -6.0572 -2.81608
LeftFoot  -16.8322 -0.0882072 -3.83331
LeftToes  7.91257e-010 -1.64976e-010 -3.02228e-011
1321
root  46.1915 37.8027 28.0146 176.789 -14.3821 171.782
RightUpLeg  -6.45706 -9.75808 -5.90162
RightLeg  35.3868 -71.6729 -36.198
RightFoot  -9.93401 -28.4996 175.145
RightToes  -6.98493e-010 0 -3.6325e-017
Spine  13.4328 -3.72762 4.72055
Spine1  10.1296 -1.86181 -7.14651
HEad  55.809 10.8827 -142.192
LeftShoulder1  0.587582 1.65312 -25.5659
LeftArm  -9.61988 6.04886 -37.119
LeftForeArm  79.1653 -79.0309 -96.9478
LeftHand  -0.0466578 0.648154 1.0381
RightShoulder  -0.115585 -3.89724 21.084
RightArm  -14.5083 -10.0877 29.2928
RightForeArm  114.687 69.92 146.151
RightHand  -0.0668393 -0.739663 -1.58613
LeftUpLeg  -8.25027 13.563 -4.62974
LeftLeg  30.5178 -5.27978 -2.99529
LeftFoot  -17.3514 -0.264015 -7.06742
LeftToes  7.91257e-010 -1.64976e-010 -3.02228e-011
1322
root  45.9412 37.7442 27.9138 176.874 -14.6742 172.013
RightUpLeg  -7.00405 -8.44539 -5.99327
RightLeg  68.3048 -75.838 -70.0539
RightFoot  -10.1913 -36.5263 177.218
RightToes  -6.98493e-010 0 -3.6325e-017
Spine  13.3689 -3.61971 5.39924
Spine1  10.6209 -1.79194 -6.61863
HEad  55.6508 11.1186 -141.564
LeftShoulder1  0.650763 1.41822 -24.9781
LeftArm  -9.05218 6.29054 -38.2369
LeftForeArm  78.5646 -79.0309 -96.5535
LeftHand  -0.105376 0.828508 2.62896
RightShoulder  -0.169885 -4.08598 21.4993
RightArm  -15.0215 -9.10927 27.9925
RightForeArm  113.531 70.1282 145.628
RightHand  -0.0645881 -0.525688 -1.48219
LeftUpLeg  -10.286 14.2492 -4.13196
LeftLeg  34.2219 -5.34536 -3.51157
LeftFoot  -16.4458 -0.247669 -7.7418
LeftToes  7.91257e-010 -1.64976e-010 -3.02228e-011
1323
root  45.6855 37.747 27.8053 177.151 -15.4526 172.095
RightUpLeg  -7.10196 -7.0564 -6.26932
RightLeg  131.431 -71.2094 -135.372
RightFoot  -10.4839 -52.879 179.527
RightToes  -6.98493e-010 0 -3.6325e-017
Spine  13.6914 -3.91833 5.15264
Spine1  10.2294 -2.47942 -5.37105
HEad  56.2252 19.9543 -155.255
LeftShoulder1  0.576233 1.69754 -25.6913
LeftArm  -8.62747 6.23176 -37.8769
LeftForeArm  76.7138 -79.0395 -95.1044
LeftHand  -0.110735 1.39317 3.04999
RightShoulder  -0.108326 -3.87097 21.154
RightArm  -15.0733 -8.46753 28.1851
RightForeArm  113.019 70.6036 144.663
RightHand  -0.0378295 -1.1388 -0.888917
LeftUpLeg  -12.5432 14.1334 -3.46102
LeftLeg  37.0067 -4.2955 -3.07847
LeftFoot  -16.6022 -0.23581 -7.2808
LeftToes  7.91257e-010 -1.64976e-010 -3.02228e-011
1324
root  45.3852 37.8252 27.7165 177.622 -16.0535 171.402
RightUpLeg  -6.97446 -6.5678 -7.46353
RightLeg  157.501 -49.6722 -164.465
RightFoot  -21.4826 -76.5272 -167.608
RightToes  -6.98493e-010 0 -3.6325e-017
Spine  13.9205 -4.09082 4.64327
Spine1  10.0761 -2.82773 -4.98657
HEad  58.6429 52.794 159.547
LeftShoulder1  0.582466 1.69432 -25.9933
LeftArm  -8.57825 6.03786 -37.9931
LeftForeArm  72.9072 -79.0779 -91.3468
LeftHand  -0.100965 0.818027 2.4436
RightShoulder  -0.145635 -4.0084 21.0043
RightArm  -15.2941 -8.17595 28.8328
RightForeArm  113.626 70.9102 144.134
RightHand  -0.00950244 -0.885721 -0.143801
LeftUpLeg  -14.1004 13.5955 -3.30586
LeftLeg  37.2233 -3.14988 -2.17535
LeftFoot  -16.3198 -0.190593 -6.63253
LeftToes  7.91257e-010 -1.64976e-010 -3.02228e-011
1325
root  45.09 37.9165 27.6604 178.397 -15.8767 170.692
RightUpLeg  -7.24424 -6.12605 -8.48713
RightLeg  164.95 -20.1782 -176.112
RightFoot  177.436 -72.425 -4.90344
RightToes  -6.98493e-010 0 -3.6325e-017
Spine  14.0317 -3.97643 4.29939
Spine1  9.85933 -2.68989 -5.08942
HEad  58.8625 49.0415 164.107
LeftShoulder1  0.620165 1.58435 -26.1366
LeftArm  -8.95289 5.9487 -38.3256
LeftForeArm  70.8411 -79.0703 -89.5048
LeftHand  -0.156653 0.300904 3.59615
RightShoulder  -0.13261 -3.96056 21.0099
RightArm  -15.4911 -8.33217 29.3121
RightForeArm  113.284 70.765 144.378
RightHand  -0.0685284 -1.17978 -1.68094
LeftUpLeg  -15.5215 13.4502 -2.65096
LeftLeg  35.8469 -3.26715 -2.14078
LeftFoot  -16.1385 -0.198711 -7.04177
LeftToes  7.91257e-010 -1.64976e-010 -3.02228e-011
